<?xml version="1.0" ?><svg width="64px" height="64px" viewBox="0 0 64 64" enable-background="new 0 0 64 64" id="Filled_Outline_00000081607312705973271110000009714898175699931553_" version="1.1" xml:space="preserve" xmlns="http://www.w3.org/2000/svg" xmlns:xlink="http://www.w3.org/1999/xlink"><g><g><path d="M41,17h-0.1c-2.705-1.27-5.714-2-8.9-2s-6.195,0.73-8.9,2H23C10.85,17,1,26.85,1,39v0    c0,12.15,9.85,22,22,22h0.1c2.705,1.27,5.714,2,8.9,2s6.195-0.73,8.9-2H41c12.15,0,22-9.85,22-22v0C63,26.85,53.15,17,41,17z" fill="#FF6D1F"/><path d="M21,4L21,4c0,1.657,1.343,3,3,3h0c2.761,0,5,2.239,5,5v3h6v-3c0-6.075-4.925-11-11-11h0    C22.343,1,21,2.343,21,4z" fill="#A69D24"/><path d="M24,35c-1.657,0-3-2.239-3-5s1.343-5,3-5s3,2.239,3,5S25.657,35,24,35z M43,30c0-2.761-1.343-5-3-5    s-3,2.239-3,5s1.343,5,3,5S43,32.761,43,30z M37,43H27c-3.314,0-6,2.686-6,6v0h22v0C43,45.686,40.314,43,37,43z" fill="#732002"/><path d="M32,59L32,59c-2.761,0-5-2.239-5-5v-5c0-1.105,0.895-2,2-2h6c1.105,0,2,0.895,2,2v5    C37,56.761,34.761,59,32,59z" fill="#D92B3A"/></g><g><path d="M24,36c2.243,0,4-2.636,4-6s-1.757-6-4-6s-4,2.636-4,6S21.757,36,24,36z M24,26c0.944,0,2,1.71,2,4    s-1.056,4-2,4s-2-1.71-2-4S23.056,26,24,26z" fill="#260A04"/><path d="M40,24c-2.243,0-4,2.636-4,6s1.757,6,4,6s4-2.636,4-6S42.243,24,40,24z M40,34c-0.944,0-2-1.71-2-4    s1.056-4,2-4s2,1.71,2,4S40.944,34,40,34z" fill="#260A04"/><path d="M37,42H27c-3.86,0-7,3.14-7,7c0,0.552,0.448,1,1,1h5v4c0,3.309,2.691,6,6,6s6-2.691,6-6v-4h5    c0.553,0,1-0.448,1-1C44,45.14,40.859,42,37,42z M36,54c0,2.206-1.794,4-4,4c-2.206,0-4-1.794-4-4v-5c0-0.551,0.449-1,1-1h6    c0.552,0,1,0.449,1,1V54z M37.816,48c-0.414-1.161-1.514-2-2.816-2h-6c-1.302,0-2.402,0.839-2.816,2h-4.084    c0.464-2.279,2.485-4,4.899-4h10c2.415,0,4.435,1.721,4.899,4H37.816z" fill="#260A04"/><path d="M64,39c0-12.63-10.233-22.911-22.843-22.996c-1.623-0.746-3.351-1.3-5.157-1.633V12    c0-6.617-5.383-12-12-12c-2.206,0-4,1.794-4,4s1.794,4,4,4s4,1.794,4,4v2.371c-1.805,0.333-3.534,0.887-5.157,1.633    C10.233,16.089,0,26.37,0,39s10.233,22.911,22.843,22.996C25.633,63.279,28.733,64,32,64s6.367-0.721,9.157-2.004    C53.767,61.911,64,51.63,64,39z M24,6c-1.103,0-2-0.897-2-2s0.897-2,2-2c5.514,0,10,4.486,10,10v2.095    C33.341,14.035,32.675,14,32,14s-1.341,0.035-2,0.095V12C30,8.691,27.309,6,24,6z M45.218,59.574C50.547,55.555,54,49.174,54,42    h-2c0,11.028-8.972,20-20,20c-11.028,0-20-8.972-20-20h-2c0,7.174,3.453,13.555,8.782,17.574C9.217,57.616,2,49.135,2,39    s7.217-18.616,16.782-20.574C13.453,22.445,10,28.826,10,36h2c0-11.028,8.972-20,20-20c11.028,0,20,8.972,20,20h2    c0-7.174-3.453-13.555-8.782-17.574C54.782,20.384,62,28.865,62,39S54.782,57.616,45.218,59.574z" fill="#260A04"/></g></g></svg>